HIERARCHY
ROOT Root
{
  OFFSET 0.0 0.0 0.0
  CHANNELS 6 Xposition Yposition Zposition Zrotation Yrotation Xrotation
  JOINT Hips
  {
    OFFSET 0.0 100.0 0.0
    CHANNELS 6 Xposition Yposition Zposition Zrotation Yrotation Xrotation
    JOINT Spine1
    {
      OFFSET 5.003913 -0.037094 -0.013727
      CHANNELS 3 Zrotation Yrotation Xrotation
      JOINT Spine2
      {
        OFFSET 7.125363 -1e-06 0.0
        CHANNELS 3 Zrotation Yrotation Xrotation
        JOINT Chest
        {
          OFFSET 7.594027 1e-06 0.0
          CHANNELS 3 Zrotation Yrotation Xrotation
          JOINT Neck1
          {
            OFFSET 26.313086 -0.460272 -0.181672
            CHANNELS 3 Zrotation Yrotation Xrotation
            JOINT Neck2
            {
              OFFSET 8.045911 0.0 0.0
              CHANNELS 3 Zrotation Yrotation Xrotation
              JOINT Head
              {
                OFFSET 6.432774 0.0 0.0
                CHANNELS 3 Zrotation Yrotation Xrotation
                JOINT HeadEnd
                {
                  OFFSET 16.169773 0.06451 0.00362
                  CHANNELS 3 Zrotation Yrotation Xrotation
                }
                JOINT Jaw
                {
                  OFFSET 0.108741 3.12938 0.002639
                  CHANNELS 3 Zrotation Yrotation Xrotation
                }
                JOINT LeftEye
                {
                  OFFSET 4.45173 8.166359 3.206392
                  CHANNELS 3 Zrotation Yrotation Xrotation
                }
                JOINT RightEye
                {
                  OFFSET 4.436895 8.135758 -3.222429
                  CHANNELS 3 Zrotation Yrotation Xrotation
                }
              }
            }
          }
          JOINT LeftShoulder
          {
            OFFSET 23.218927 5.195579 1.621656
            CHANNELS 3 Zrotation Yrotation Xrotation
            JOINT LeftArm
            {
              OFFSET 15.902118 2e-06 -2e-06
              CHANNELS 3 Zrotation Yrotation Xrotation
              JOINT LeftForeArm
              {
                OFFSET 28.739307 0.0 -1e-06
                CHANNELS 3 Zrotation Yrotation Xrotation
                JOINT LeftHand
                {
                  OFFSET 27.093981 -4e-06 0.0
                  CHANNELS 3 Zrotation Yrotation Xrotation
                  JOINT LeftHandThumb1
                  {
                    OFFSET 2.276781 3.380274 0.83384
                    CHANNELS 3 Zrotation Yrotation Xrotation
                    JOINT LeftHandThumb2
                    {
                      OFFSET 4.705309 -1e-06 -1e-06
                      CHANNELS 3 Zrotation Yrotation Xrotation
                      JOINT LeftHandThumb3
                      {
                        OFFSET 2.798515 0.0 3e-06
                        CHANNELS 3 Zrotation Yrotation Xrotation
                        JOINT LeftHandThumbEnd
                        {
                          OFFSET 3.180793 4e-06 -4e-06
                          CHANNELS 3 Zrotation Yrotation Xrotation
                        }
                      }
                    }
                  }
                  JOINT LeftHandIndex1
                  {
                    OFFSET 3.247786 2.352677 0.137192
                    CHANNELS 3 Zrotation Yrotation Xrotation
                    JOINT LeftHandIndex2
                    {
                      OFFSET 6.367095 1e-06 0.0
                      CHANNELS 3 Zrotation Yrotation Xrotation
                      JOINT LeftHandIndex3
                      {
                        OFFSET 3.662364 0.0 0.0
                        CHANNELS 3 Zrotation Yrotation Xrotation
                        JOINT LeftHandIndex4
                        {
                          OFFSET 2.329242 4e-06 -4e-06
                          CHANNELS 3 Zrotation Yrotation Xrotation
                          JOINT LeftHandIndexEnd
                          {
                            OFFSET 2.767823 1e-06 0.0
                            CHANNELS 3 Zrotation Yrotation Xrotation
                          }
                        }
                      }
                    }
                  }
                  JOINT LeftHandMiddle1
                  {
                    OFFSET 3.163612 0.945023 -0.406112
                    CHANNELS 3 Zrotation Yrotation Xrotation
                    JOINT LeftHandMiddle2
                    {
                      OFFSET 6.276789 3e-06 0.0
                      CHANNELS 3 Zrotation Yrotation Xrotation
                      JOINT LeftHandMiddle3
                      {
                        OFFSET 4.35652 -1e-06 4e-06
                        CHANNELS 3 Zrotation Yrotation Xrotation
                        JOINT LeftHandMiddle4
                        {
                          OFFSET 2.996877 0.0 8e-06
                          CHANNELS 3 Zrotation Yrotation Xrotation
                          JOINT LeftHandMiddleEnd
                          {
                            OFFSET 2.323256 3e-06 -4e-06
                            CHANNELS 3 Zrotation Yrotation Xrotation
                          }
                        }
                      }
                    }
                  }
                  JOINT LeftHandRing1
                  {
                    OFFSET 2.882606 -0.309162 0.107445
                    CHANNELS 3 Zrotation Yrotation Xrotation
                    JOINT LeftHandRing2
                    {
                      OFFSET 6.033198 0.0 4e-06
                      CHANNELS 3 Zrotation Yrotation Xrotation
                      JOINT LeftHandRing3
                      {
                        OFFSET 4.350578 3e-06 0.0
                        CHANNELS 3 Zrotation Yrotation Xrotation
                        JOINT LeftHandRing4
                        {
                          OFFSET 2.651321 2e-06 -7e-06
                          CHANNELS 3 Zrotation Yrotation Xrotation
                          JOINT LeftHandRingEnd
                          {
                            OFFSET 1.937663 1e-06 -4e-06
                            CHANNELS 3 Zrotation Yrotation Xrotation
                          }
                        }
                      }
                    }
                  }
                  JOINT LeftHandPinky1
                  {
                    OFFSET 2.865315 -1.525436 0.575687
                    CHANNELS 3 Zrotation Yrotation Xrotation
                    JOINT LeftHandPinky2
                    {
                      OFFSET 5.54936 1e-06 -8e-06
                      CHANNELS 3 Zrotation Yrotation Xrotation
                      JOINT LeftHandPinky3
                      {
                        OFFSET 3.070974 0.0 -4e-06
                        CHANNELS 3 Zrotation Yrotation Xrotation
                        JOINT LeftHandPinky4
                        {
                          OFFSET 1.549672 1e-06 0.0
                          CHANNELS 3 Zrotation Yrotation Xrotation
                          JOINT LeftHandPinkyEnd
                          {
                            OFFSET 1.952123 0.0 0.0
                            CHANNELS 3 Zrotation Yrotation Xrotation
                          }
                        }
                      }
                    }
                  }
                }
              }
            }
          }
          JOINT RightShoulder
          {
            OFFSET 23.161716 5.296122 -1.380114
            CHANNELS 3 Zrotation Yrotation Xrotation
            JOINT RightArm
            {
              OFFSET -16.027195 -2e-06 1.1e-05
              CHANNELS 3 Zrotation Yrotation Xrotation
              JOINT RightForeArm
              {
                OFFSET -28.736639 4e-06 2e-06
                CHANNELS 3 Zrotation Yrotation Xrotation
                JOINT RightHand
                {
                  OFFSET -27.133619 6e-06 0.0
                  CHANNELS 3 Zrotation Yrotation Xrotation
                  JOINT RightHandThumb1
                  {
                    OFFSET -2.274328 -3.351035 -0.83067
                    CHANNELS 3 Zrotation Yrotation Xrotation
                    JOINT RightHandThumb2
                    {
                      OFFSET -4.703594 -3e-06 2e-06
                      CHANNELS 3 Zrotation Yrotation Xrotation
                      JOINT RightHandThumb3
                      {
                        OFFSET -2.794935 -4e-06 -3e-06
                        CHANNELS 3 Zrotation Yrotation Xrotation
                        JOINT RightHandThumbEnd
                        {
                          OFFSET -3.183852 4e-06 1e-06
                          CHANNELS 3 Zrotation Yrotation Xrotation
                        }
                      }
                    }
                  }
                  JOINT RightHandIndex1
                  {
                    OFFSET -3.253496 -2.33755 -0.127667
                    CHANNELS 3 Zrotation Yrotation Xrotation
                    JOINT RightHandIndex2
                    {
                      OFFSET -6.344434 0.0 0.0
                      CHANNELS 3 Zrotation Yrotation Xrotation
                      JOINT RightHandIndex3
                      {
                        OFFSET -3.654871 0.0 -8e-06
                        CHANNELS 3 Zrotation Yrotation Xrotation
                        JOINT RightHandIndex4
                        {
                          OFFSET -2.327586 -1e-06 0.0
                          CHANNELS 3 Zrotation Yrotation Xrotation
                          JOINT RightHandIndexEnd
                          {
                            OFFSET -2.770001 3e-06 8e-06
                            CHANNELS 3 Zrotation Yrotation Xrotation
                          }
                        }
                      }
                    }
                  }
                  JOINT RightHandMiddle1
                  {
                    OFFSET -3.168223 -0.944764 0.411762
                    CHANNELS 3 Zrotation Yrotation Xrotation
                    JOINT RightHandMiddle2
                    {
                      OFFSET -6.266691 -1e-06 -4e-06
                      CHANNELS 3 Zrotation Yrotation Xrotation
                      JOINT RightHandMiddle3
                      {
                        OFFSET -4.348901 0.0 0.0
                        CHANNELS 3 Zrotation Yrotation Xrotation
                        JOINT RightHandMiddle4
                        {
                          OFFSET -3.00024 2e-06 -4e-06
                          CHANNELS 3 Zrotation Yrotation Xrotation
                          JOINT RightHandMiddleEnd
                          {
                            OFFSET -2.321477 -4e-06 -4e-06
                            CHANNELS 3 Zrotation Yrotation Xrotation
                          }
                        }
                      }
                    }
                  }
                  JOINT RightHandRing1
                  {
                    OFFSET -2.885654 0.293261 -0.119232
                    CHANNELS 3 Zrotation Yrotation Xrotation
                    JOINT RightHandRing2
                    {
                      OFFSET -6.032835 -1e-06 -4e-06
                      CHANNELS 3 Zrotation Yrotation Xrotation
                      JOINT RightHandRing3
                      {
                        OFFSET -4.33881 0.0 -4e-06
                        CHANNELS 3 Zrotation Yrotation Xrotation
                        JOINT RightHandRing4
                        {
                          OFFSET -2.654903 -4e-06 -4e-06
                          CHANNELS 3 Zrotation Yrotation Xrotation
                          JOINT RightHandRingEnd
                          {
                            OFFSET -1.935122 0.0 4e-06
                            CHANNELS 3 Zrotation Yrotation Xrotation
                          }
                        }
                      }
                    }
                  }
                  JOINT RightHandPinky1
                  {
                    OFFSET -2.866241 1.503904 -0.60527
                    CHANNELS 3 Zrotation Yrotation Xrotation
                    JOINT RightHandPinky2
                    {
                      OFFSET -5.553177 -2e-06 0.0
                      CHANNELS 3 Zrotation Yrotation Xrotation
                      JOINT RightHandPinky3
                      {
                        OFFSET -3.062664 -1e-06 -4e-06
                        CHANNELS 3 Zrotation Yrotation Xrotation
                        JOINT RightHandPinky4
                        {
                          OFFSET -1.546529 2e-06 4e-06
                          CHANNELS 3 Zrotation Yrotation Xrotation
                          JOINT RightHandPinkyEnd
                          {
                            OFFSET -1.952341 0.0 -4e-06
                            CHANNELS 3 Zrotation Yrotation Xrotation
                          }
                        }
                      }
                    }
                  }
                }
              }
            }
          }
        }
      }
    }
    JOINT LeftLeg
    {
      OFFSET -8.443107 2.567604 10.043214
      CHANNELS 3 Zrotation Yrotation Xrotation
      JOINT LeftShin
      {
        OFFSET 43.229198 1e-06 -1e-06
        CHANNELS 3 Zrotation Yrotation Xrotation
        JOINT LeftFoot
        {
          OFFSET 42.298611 1e-06 1e-06
          CHANNELS 3 Zrotation Yrotation Xrotation
          JOINT LeftToeBase
          {
            OFFSET 14.165858 1e-06 0.0
            CHANNELS 3 Zrotation Yrotation Xrotation
            JOINT LeftToeEnd
            {
              OFFSET 6.7141 -0.234461 0.0
              CHANNELS 3 Zrotation Yrotation Xrotation
            }
          }
        }
      }
    }
    JOINT RightLeg
    {
      OFFSET -8.303923 2.592729 -10.047278
      CHANNELS 3 Zrotation Yrotation Xrotation
      JOINT RightShin
      {
        OFFSET -43.369682 0.0 1e-06
        CHANNELS 3 Zrotation Yrotation Xrotation
        JOINT RightFoot
        {
          OFFSET -42.260784 4e-06 2e-06
          CHANNELS 3 Zrotation Yrotation Xrotation
          JOINT RightToeBase
          {
            OFFSET -14.222245 -2e-06 -1e-06
            CHANNELS 3 Zrotation Yrotation Xrotation
            JOINT RightToeEnd
            {
              OFFSET -6.660062 0.232574 -2e-06
              CHANNELS 3 Zrotation Yrotation Xrotation
            }
          }
        }
      }
    }
  }
}
MOTION
Frames: 4
Frame Time: 0.03333333333333333
0.0 0.0 0.0 0.0 -0.0 0.0 -358.222076 91.946419 -99.076721 90.724594 -10.910978 -155.506302 10.175329 -3.753614 -1.57546 -7.14506 -2.195968 -3.1831 23.21291 -6.639449 -8.609526 24.562119 0.343436 2.124805 -2.059154 -0.300687 -22.015732 -28.994543 4.418799 -26.834305 6e-06 1e-06 -1e-06 -0.176179 0.008033 0.140248 -0.342553 0.114936 0.171778 -0.271423 -0.102974 0.121294 -47.820057 -82.924545 63.061272 53.228916 -61.109486 -15.008646 125.062538 0.214589 1.001758 -1.429067 0.183925 3.655651 17.636625 -26.322731 52.41119 -19.466656 -14.395598 29.410389 3e-06 -8.774821 -2e-06 16.874239 -17.636587 5.832919 -0.609776 -1.795653 -3.889327 -4.807087 -11.046809 -2.93785 3e-06 -20.976017 -0.0 -5.019972 -25.03356 -4.031878 6e-06 0.0 -0.0 -10.634533 -5.686968 -3.565587 10.573272 -17.922953 -3.113901 2e-06 -13.821205 2e-06 -0.501779 -31.181505 -4.027014 -12.28734 -61.080578 8.114052 -13.982712 -7.150195 -2.875041 13.772728 -8.401493 -3.218242 0.347733 -34.211552 0.771655 -0.963029 -17.73337 2.621019 0.0 -0.0 0.0 -17.346415 -20.095215 -4.20178 21.757557 -1.638373 3.866426 1e-06 -6.338823 0.0 -1.697589 -22.591742 -6.194005 0.0 -3e-06 -2e-06 129.439224 -74.381287 72.485489 -34.501431 -69.545074 52.248055 98.099159 0.624015 1.753697 2.951915 11.001545 18.579851 22.18211 -20.375889 49.933308 -16.701807 -16.743525 28.476522 -4e-06 -12.690598 -1e-06 15.401299 -17.36923 2.812829 -0.10592 -1.513854 -4.27588 -5.039041 -5.612874 -2.953552 3e-06 -11.02052 0.0 -6.111295 -15.895328 -3.84047 1e-06 1e-06 -1e-06 -10.283367 -5.680286 -4.341836 11.02829 -11.302404 -2.372632 -1.384268 -14.238577 -6.320119 -0.625439 -26.924185 -3.827599 -4.498126 -48.636509 -3.305649 -13.708521 -7.363474 -3.720937 18.141146 -14.052739 -3.242672 4e-06 -18.787266 -3e-06 -0.429709 -8.456041 2.555502 1e-06 -1e-06 -1e-06 -15.923532 -20.094482 -5.473585 30.419205 -7.190824 1.73593 -1e-06 -8.162921 -3e-06 -1.861903 -22.861464 -6.167941 -2e-06 -3e-06 -2e-06 175.775803 -16.778896 -14.983518 56.473328 -0.396013 0.600369 -63.653408 5.000567 -17.997065 -17.159805 1.832003 2.205436 -1.0 -0.0 -0.0 -29.120348 -2.113794 -24.404285 32.075405 1.304687 -2.077701 -82.209084 -28.87953 9.49926 -7.197687 0.849127 1.731454 -1.000002 -1e-06 -0.0 
0.0 0.0 0.0 0.0 -0.0 0.0 -352.376831 92.174629 -101.771225 92.231812 -11.542686 -162.560272 10.526108 -3.279602 -1.111067 -7.110782 -2.118978 -1.788653 23.587831 -7.23281 -7.771619 23.797064 -0.970467 2.076294 -2.008545 -0.478809 -21.231815 -28.952496 4.087094 -26.491693 6e-06 1e-06 1e-06 -0.144343 -0.002711 0.16748 -0.255715 0.032329 0.201758 -0.172122 -0.045638 0.139039 -79.700134 -82.435089 96.375206 41.627178 -62.328209 -7.924728 119.748764 0.398111 0.971013 -2.445133 -2.747644 7.524268 17.636627 -26.322729 52.411186 -19.466665 -14.3956 29.410393 1e-06 -8.774822 -2e-06 16.639694 -18.221056 6.210836 -0.609776 -1.795653 -3.889328 -4.807088 -11.046813 -2.937851 5e-06 -20.976019 -1e-06 -5.019969 -25.03356 -4.031881 6e-06 1e-06 0.0 -10.634535 -5.686969 -3.565587 10.573277 -17.922951 -3.113902 4e-06 -13.821211 0.0 -0.501776 -31.181505 -4.027016 -12.894034 -60.837925 8.748977 -13.982714 -7.150197 -2.875041 13.772731 -8.401494 -3.218243 0.347735 -34.211555 0.771654 -0.963028 -17.733372 2.621019 0.0 -0.0 0.0 -17.34642 -20.095219 -4.20178 21.757559 -1.638374 3.866428 1e-06 -6.338823 1e-06 -1.697588 -22.591747 -6.194007 0.0 -4e-06 -2e-06 126.470146 -76.98877 74.445656 -16.235029 -71.046822 34.439476 98.208939 0.967768 0.990816 4.654676 10.411962 21.103045 22.182121 -20.375902 49.933323 -16.701815 -16.743526 28.47653 -5e-06 -12.690601 -4e-06 15.372985 -17.904167 3.039879 -0.105921 -1.513856 -4.275882 -5.039041 -5.612873 -2.953559 6e-06 -11.020527 1e-06 -6.111295 -15.895334 -3.840472 -1e-06 1e-06 -1e-06 -10.283371 -5.680287 -4.341837 11.028293 -11.302406 -2.37263 -1.384269 -14.238585 -6.320122 -0.625441 -26.924194 -3.827599 -4.969881 -48.75779 -3.240057 -13.708527 -7.363479 -3.72094 18.141155 -14.052743 -3.242673 5e-06 -18.787273 -2e-06 -0.429713 -8.456047 2.555504 3e-06 -1e-06 1e-06 -15.923536 -20.094484 -5.473584 30.419218 -7.190827 1.735927 2e-06 -8.162929 -1e-06 -1.861902 -22.861473 -6.16794 -2e-06 -2e-06 -1e-06 172.940109 -15.981382 -14.692849 67.018051 -0.44431 0.418052 -58.144993 0.551031 -14.182778 -9.670935 1.603683 2.404171 -1.0 1e-06 -1e-06 -25.107159 1.458769 -19.190891 32.612759 1.105789 -2.063299 -84.922501 -29.665182 16.32568 -6.706982 0.896153 1.784407 -1.000002 -1e-06 -0.0 
0.0 0.0 0.0 0.0 -0.0 0.0 -347.382629 91.671692 -104.288528 94.457314 -11.052829 -168.646317 11.933043 -2.525027 -0.600593 -6.835743 -1.898926 -0.780708 24.441322 -6.759007 -6.332779 23.144897 -2.388994 1.816974 -2.203582 -0.218104 -20.105711 -31.79085 3.586565 -26.913673 6e-06 1e-06 0.0 -0.161041 0.010042 0.170126 -0.253406 0.029592 0.193671 -0.217854 -0.016554 0.14941 -85.701927 -80.577316 103.31955 41.241787 -63.697765 -9.814281 114.905861 -0.183331 0.4938 -2.216024 -4.416792 10.834768 17.636627 -26.322733 52.411201 -19.466665 -14.395598 29.410395 1e-06 -8.774821 -2e-06 16.615849 -17.923965 6.137205 -0.609776 -1.795655 -3.889328 -4.80709 -11.046813 -2.937851 5e-06 -20.976017 -2e-06 -5.01997 -25.033556 -4.031882 6e-06 -0.0 -0.0 -10.634535 -5.686972 -3.565588 10.573276 -17.922955 -3.113903 3e-06 -13.821213 0.0 -0.501776 -31.181507 -4.027018 -12.68757 -60.565132 8.788042 -13.982716 -7.1502 -2.875042 13.772731 -8.401492 -3.218242 0.347736 -34.211555 0.771651 -0.963028 -17.73337 2.621019 0.0 -0.0 0.0 -17.346422 -20.095222 -4.201782 21.757561 -1.638375 3.866429 1e-06 -6.338825 1e-06 -1.697588 -22.591747 -6.194009 -0.0 -3e-06 -3e-06 134.249786 -78.65094 66.022667 10.029236 -71.205467 8.886277 94.985451 0.222635 0.358519 5.558405 11.719289 24.333353 22.182117 -20.3759 49.933334 -16.701815 -16.743528 28.476538 -3e-06 -12.690603 2e-06 15.563873 -17.984545 3.166992 -0.105922 -1.513858 -4.275882 -5.03904 -5.612872 -2.953558 5e-06 -11.020523 -1e-06 -6.111294 -15.895334 -3.840475 -2e-06 1e-06 -1e-06 -10.283371 -5.680289 -4.341839 11.028293 -11.302406 -2.372632 -1.384267 -14.238582 -6.320124 -0.625433 -26.924194 -3.827605 -5.351399 -49.271152 -2.962173 -13.708526 -7.363477 -3.720942 18.141153 -14.052742 -3.242677 7e-06 -18.787275 -2e-06 -0.42971 -8.456047 2.555503 1e-06 -1e-06 1e-06 -15.923536 -20.094484 -5.473585 30.419222 -7.190827 1.735924 3e-06 -8.162929 -1e-06 -1.861905 -22.861471 -6.167943 -1e-06 -3e-06 -1e-06 167.660095 -16.549484 -13.987516 76.464432 -0.307702 0.449471 -65.026794 -1.055969 -11.63282 -8.707376 1.63472 2.435877 -0.999999 0.0 0.0 -23.335405 3.199314 -15.360047 40.377995 0.88605 -1.808213 -90.254112 -27.615515 16.367188 -5.516902 0.870688 1.764581 -1.0 -1e-06 0.0 
0.0 0.0 0.0 0.0 -0.0 0.0 -342.557922 91.093643 -106.690491 96.153687 -10.446582 -173.031693 13.314932 -2.087805 -0.217151 -6.515499 -1.736114 0.013452 25.852436 -6.207668 -4.949541 22.429859 -3.445662 1.9267 -2.280722 -0.103875 -19.251747 -34.427414 3.697621 -27.5308 6e-06 -0.0 -1e-06 -0.20589 0.042957 0.213586 -0.307777 0.06282 0.221167 -0.315351 0.018202 0.2075 -80.4254 -78.906105 99.121696 47.989986 -64.264183 -15.321484 111.553001 -0.287259 -0.042284 -2.033707 -5.34637 14.035447 17.636642 -26.322741 52.411213 -19.466661 -14.395602 29.410395 -1e-06 -8.774824 -3e-06 16.211216 -17.716553 6.225361 -0.609777 -1.795656 -3.889328 -4.807091 -11.046814 -2.93785 4e-06 -20.976021 0.0 -5.019972 -25.033562 -4.031882 6e-06 -0.0 -1e-06 -10.634538 -5.686973 -3.565589 10.573277 -17.922958 -3.113901 3e-06 -13.821211 1e-06 -0.501777 -31.181511 -4.027017 -12.321706 -60.236538 8.464735 -13.982719 -7.150199 -2.875043 13.772735 -8.401497 -3.218242 0.347735 -34.211559 0.771655 -0.963029 -17.733374 2.621021 -0.0 0.0 -0.0 -17.346426 -20.095224 -4.201781 21.757566 -1.638376 3.866429 1e-06 -6.338823 1e-06 -1.69759 -22.591749 -6.194008 -0.0 -5e-06 -1e-06 151.96344 -78.755806 47.994556 33.534607 -68.675224 -13.766957 89.526543 -0.972773 0.193881 6.218336 12.472253 27.520266 22.182121 -20.375898 49.933327 -16.701809 -16.743526 28.47653 2e-06 -12.690601 -3e-06 15.645214 -18.056322 3.104006 -0.105918 -1.513856 -4.275883 -5.039042 -5.612874 -2.953554 3e-06 -11.020523 -2e-06 -6.1113 -15.895334 -3.840471 -2e-06 1e-06 1e-06 -10.283371 -5.68029 -4.341839 11.028293 -11.302402 -2.37263 -1.384271 -14.238584 -6.32012 -0.625439 -26.924191 -3.827603 -5.644933 -49.558708 -2.950858 -13.708527 -7.36348 -3.720938 18.141148 -14.052739 -3.242671 3e-06 -18.787271 -2e-06 -0.42971 -8.456045 2.555502 1e-06 0.0 -0.0 -15.923539 -20.094486 -5.473584 30.419214 -7.190824 1.735931 0.0 -8.162922 -1e-06 -1.861906 -22.861469 -6.167942 -2e-06 -3e-06 -1e-06 159.731628 -16.171301 -11.60266 80.52002 -0.27813 0.474198 -70.272247 -2.432135 -8.979642 -8.555426 1.651653 2.326592 -0.999998 -1e-06 1e-06 -20.937338 3.440869 -14.043978 46.390293 0.831225 -1.439481 -94.946693 -23.830011 15.147092 -4.510827 0.802996 1.735638 -1.000001 1e-06 0.0 
